<svg viewBox="0 0 12 14" xmlns="http://www.w3.org/2000/svg">
<path fill-rule="evenodd" clip-rule="evenodd" d="M8.48635 3.49998C8.48635 2.49998 7.82001 1.49999 6.99454 1.49999H5.00546C4.17999 1.49999 3.51365 2.49998 3.51365 3.49998V5.58996C3.51605 6.32372 3.3578 7.04902 3.05014 7.71438C2.74248 8.37974 2.29293 8.96887 1.73342 9.43994C1.65144 9.51188 1.58985 9.60437 1.55492 9.70799C1.51998 9.81161 1.51294 9.92269 1.53451 10.0299C1.56612 10.1648 1.64243 10.2848 1.75089 10.3702C1.85934 10.4556 1.99348 10.5014 2.13124 10.4999H9.86876C10.0065 10.5014 10.1407 10.4556 10.2491 10.3702C10.3576 10.2848 10.4339 10.1648 10.4655 10.0299C10.4871 9.92269 10.48 9.81161 10.4451 9.70799C10.4101 9.60437 10.3486 9.51188 10.2666 9.43994C9.70707 8.96887 9.25752 8.37974 8.94986 7.71438C8.6422 7.04902 8.48395 6.32372 8.48635 5.58996V3.49998ZM5.00546 0H6.99454C7.84974 0.0715109 8.64248 0.478981 9.20095 1.13411C9.75943 1.78924 10.0387 2.63926 9.97816 3.49998V5.58996C9.98606 6.0526 10.0943 6.50793 10.2953 6.92417C10.4962 7.34042 10.7851 7.70755 11.1418 7.99995C11.463 8.2829 11.7074 8.64341 11.8518 9.04754C11.9962 9.45167 12.0359 9.8861 11.9672 10.3099C11.9111 10.8396 11.6632 11.33 11.2707 11.6877C10.8783 12.0454 10.3686 12.2456 9.83893 12.2499H7.97435C7.95406 12.4118 7.91412 12.5709 7.85513 12.7237C7.75875 12.9733 7.6135 13.2009 7.428 13.393C7.24249 13.5851 7.02051 13.7378 6.77521 13.8421C6.52991 13.9463 6.26629 14 5.99998 13.9998C5.49674 14.0061 5.00985 13.8203 4.63746 13.4799C4.42921 13.2834 4.26546 13.0442 4.15735 12.7785C4.08834 12.6089 4.04303 12.431 4.0223 12.2499H2.1014C1.58207 12.2312 1.08692 12.0246 0.706894 11.6682C0.32687 11.3118 0.0875001 10.8295 0.0327558 10.3099C-0.0359311 9.8861 0.00380312 9.45167 0.148217 9.04754C0.29263 8.64341 0.53697 8.2829 0.858224 7.99995C1.21488 7.70755 1.50377 7.34042 1.70475 6.92417C1.90572 6.50793 2.01394 6.0526 2.02184 5.58996V3.49998C1.96133 2.63926 2.24057 1.78924 2.79905 1.13411C3.35752 0.478981 4.15026 0.0715109 5.00546 0ZM5.05445 12.2499C5.10256 12.3982 5.18497 12.5346 5.29673 12.647C5.48325 12.8345 5.73621 12.9399 5.99998 12.9399C6.26375 12.9399 6.51671 12.8345 6.70323 12.647C6.81498 12.5346 6.8974 12.3982 6.94551 12.2499H5.05445Z"/>
</svg>
