<svg viewBox="0 0 9 15" xmlns="http://www.w3.org/2000/svg">
<path d="M2.0115 14.3316L2.01138 14.3317C1.94813 14.3921 1.86405 14.4258 1.77662 14.4258C1.68996 14.4258 1.60661 14.3927 1.54356 14.3333C1.51935 14.3094 1.50007 14.281 1.48681 14.2496C1.47328 14.2176 1.46631 14.1832 1.46631 14.1484C1.46631 14.1136 1.47328 14.0792 1.48681 14.0472C1.50017 14.0156 1.51966 13.9869 1.54413 13.9629L7.47247 8.28448L7.85146 7.92148L7.47055 7.56049L1.54344 1.94322C1.51928 1.91932 1.50004 1.89092 1.48681 1.85961C1.47328 1.82758 1.46631 1.79317 1.46631 1.7584C1.46631 1.72363 1.47328 1.68922 1.48681 1.65719C1.50007 1.62583 1.51934 1.59739 1.54355 1.57347C1.6066 1.5141 1.68996 1.48102 1.77661 1.48102C1.86405 1.48102 1.94813 1.5147 2.01138 1.57508L2.0115 1.5752L8.3015 7.57519L8.3014 7.5753L8.31031 7.5834C8.36187 7.63026 8.40307 7.68738 8.43126 7.7511C8.45945 7.81482 8.47401 7.88372 8.47401 7.9534C8.47401 8.02307 8.45945 8.09198 8.43126 8.1557C8.40306 8.21941 8.36187 8.27654 8.31031 8.3234L8.31021 8.32329L8.3015 8.3316L2.0115 14.3316Z"/>
</svg>
