<svg viewBox="0 0 9 15" xmlns="http://www.w3.org/2000/svg">
<path d="M6.9885 0.668396L6.98862 0.668278C7.05187 0.607905 7.13595 0.574219 7.22338 0.574219C7.31004 0.574219 7.39339 0.607305 7.45644 0.666664C7.48065 0.690586 7.49993 0.719033 7.51319 0.750395C7.52672 0.782419 7.53369 0.816833 7.53369 0.851601C7.53369 0.886368 7.52672 0.920782 7.51319 0.952806C7.49983 0.984418 7.48034 1.01307 7.45587 1.03711L1.52753 6.71552L1.14854 7.07852L1.52945 7.43951L7.45656 13.0568C7.48072 13.0807 7.49996 13.1091 7.51319 13.1404C7.52672 13.1724 7.53369 13.2068 7.53369 13.2416C7.53369 13.2764 7.52672 13.3108 7.51319 13.3428C7.49993 13.3742 7.48066 13.4026 7.45645 13.4265C7.3934 13.4859 7.31004 13.519 7.22339 13.519C7.13595 13.519 7.05187 13.4853 6.98862 13.4249L6.9885 13.4248L0.6985 7.42481L0.6986 7.4247L0.689689 7.4166C0.63813 7.36974 0.596935 7.31262 0.568745 7.2489C0.540555 7.18518 0.525992 7.11628 0.525992 7.0466C0.525992 6.97693 0.540554 6.90802 0.568745 6.8443C0.596935 6.78059 0.638131 6.72346 0.689689 6.6766L0.689786 6.67671L0.6985 6.6684L6.9885 0.668396Z"/>
</svg>
