<svg width="7" height="4" viewBox="0 0 7 4" fill="none" xmlns="http://www.w3.org/2000/svg">
<path d="M0.579996 2.15308e-05H6.42C6.52269 -0.00702142 6.62522 0.0159939 6.71505 0.0662566C6.80488 0.116519 6.87813 0.191854 6.92586 0.28306C6.97358 0.374266 6.99371 0.477396 6.98379 0.579854C6.97387 0.682312 6.93433 0.779665 6.87 0.860022L3.95 3.80002C3.89369 3.86387 3.82444 3.915 3.74686 3.95002C3.66927 3.98504 3.58512 4.00316 3.5 4.00316C3.41487 4.00316 3.33072 3.98504 3.25313 3.95002C3.17555 3.915 3.1063 3.86387 3.05 3.80002L0.129996 0.860022C0.0656613 0.779665 0.0261197 0.682312 0.0161999 0.579854C0.00628016 0.477396 0.0264116 0.374266 0.0741356 0.28306C0.12186 0.191854 0.195111 0.116519 0.284943 0.0662566C0.374774 0.0159939 0.477299 -0.00702142 0.579996 2.15308e-05Z" fill="#414348"/>
</svg>
