<svg viewBox="0 0 14 14" xmlns="http://www.w3.org/2000/svg">
<path d="M13.7852 12.7436L9.72293 8.67202C10.5501 7.57954 10.9317 6.21388 10.7908 4.85093C10.6498 3.48798 9.99664 2.22933 8.96334 1.32925C7.93003 0.429159 6.59357 -0.0452733 5.22392 0.00179061C3.85427 0.0488545 2.55353 0.613906 1.58448 1.5828C0.615416 2.55169 0.050267 3.8522 0.00319497 5.22161C-0.043877 6.59102 0.430637 7.92726 1.33088 8.96039C2.23112 9.99351 3.48999 10.6465 4.85317 10.7875C6.21636 10.9285 7.58225 10.5469 8.67492 9.71985L12.7472 13.7814C12.8144 13.8511 12.8951 13.9065 12.9843 13.9442C13.0735 13.9819 13.1694 14.0012 13.2662 14.001C13.3632 14.0024 13.4595 13.9836 13.5488 13.9458C13.6382 13.908 13.7187 13.8521 13.7852 13.7814C13.854 13.7136 13.9087 13.6329 13.946 13.5438C13.9833 13.4547 14.0025 13.3591 14.0025 13.2625C14.0025 13.1659 13.9833 13.0703 13.946 12.9812C13.9087 12.8921 13.854 12.8114 13.7852 12.7436ZM1.49855 5.41876C1.49855 4.64309 1.7286 3.88483 2.15962 3.23988C2.59063 2.59493 3.20325 2.09226 3.92 1.79542C4.63676 1.49858 5.42545 1.42092 6.18635 1.57224C6.94725 1.72357 7.64618 2.09709 8.19476 2.64557C8.74334 3.19406 9.11693 3.89287 9.26828 4.65364C9.41963 5.41441 9.34195 6.20297 9.04506 6.91959C8.74818 7.63622 8.24541 8.24874 7.60035 8.67968C6.95529 9.11062 6.19691 9.34063 5.4211 9.34063C4.38158 9.338 3.3854 8.92395 2.65035 8.18903C1.9153 7.45411 1.50118 6.45809 1.49855 5.41876Z"/>
</svg>
